<svg width="16" height="16" viewBox="0 0 16 16" fill="none" xmlns="http://www.w3.org/2000/svg">
<g clip-path="url(#clip0_6540_57274)">
<path d="M11.8125 3.07031L11.6045 3.03516L11.6035 3.03418H11.6016C11.5996 3.03385 11.5964 3.03381 11.5928 3.0332C11.5854 3.03199 11.5744 3.02955 11.5605 3.02734C11.5329 3.02293 11.4929 3.0172 11.4424 3.00977C11.3407 2.9948 11.1956 2.97495 11.0234 2.95508C10.6803 2.91546 10.2221 2.875 9.77148 2.875C8.8074 2.87505 7.98241 3.16842 7.39844 3.75293C6.81438 4.3377 6.50004 5.18517 6.5 6.2373V7.75H4.46875V10.5625H6.5V15.6035C2.93783 14.9049 0.25 11.7667 0.25 8C0.25 3.71979 3.71979 0.25 8 0.25C12.2802 0.25 15.75 3.71979 15.75 8C15.75 11.7667 13.0622 14.9049 9.5 15.6035V10.5625H11.3291L11.3613 10.3506L11.7158 8.03809L11.7598 7.75H9.5V6.5C9.5 6.21966 9.56945 5.97349 9.71875 5.80078C9.86223 5.63502 10.1115 5.50001 10.5537 5.5H11.8125V3.07031Z" fill="#9CA3AF" stroke="#9CA3AF" stroke-width="0.5"/>
</g>
<defs>
<clipPath id="clip0_6540_57274">
<rect width="16" height="16" fill="white"/>
</clipPath>
</defs>
</svg>
