<svg width="16" height="16" viewBox="0 0 16 16" fill="none" xmlns="http://www.w3.org/2000/svg">
<g clip-path="url(#clip0_6540_57278)">
<path d="M8 0.25C10.1706 0.25 10.4378 0.259465 11.2881 0.299805H11.2891C12.1144 0.336223 12.6685 0.469038 13.1504 0.655273C13.6449 0.846597 14.0618 1.10284 14.4795 1.52051L14.4805 1.52148C14.9 1.93815 15.153 2.35359 15.3379 2.85254L15.3389 2.85645C15.5248 3.33454 15.6579 3.8915 15.6943 4.7168C15.7316 5.56446 15.7402 5.83253 15.7402 8.00293C15.7402 10.1735 15.7316 10.4414 15.6943 11.2891C15.6579 12.1143 15.5251 12.6686 15.3389 13.1504C15.1476 13.6448 14.8912 14.0619 14.4736 14.4795C14.0561 14.8971 13.6389 15.1534 13.1445 15.3447H13.1436C12.6654 15.5307 12.1086 15.6637 11.2832 15.7002C10.4355 15.7375 10.1675 15.7471 7.99707 15.7471C5.8265 15.7471 5.55863 15.7375 4.71094 15.7002C3.88562 15.6638 3.33146 15.531 2.84961 15.3447C2.35513 15.1534 1.93817 14.8972 1.52051 14.4795L1.51953 14.4785C1.1 14.0618 0.846183 13.6453 0.651367 13.1465C0.46551 12.6684 0.333307 12.1113 0.296875 11.2861C0.259614 10.4384 0.25 10.1706 0.25 8C0.25 5.82944 0.259612 5.56179 0.296875 4.71094C0.333294 3.88562 0.465128 3.33049 0.651367 2.84863C0.846122 2.35346 1.10046 1.93772 1.51953 1.52148L1.52148 1.51953C1.93817 1.1 2.35467 0.846183 2.85352 0.651367C3.33158 0.46551 3.88865 0.333307 4.71387 0.296875C5.56156 0.259614 5.82943 0.25 8 0.25ZM8 1.19043C5.86131 1.19043 5.60374 1.19957 4.75781 1.2373C3.95171 1.27292 3.49937 1.41029 3.19336 1.5293C2.78983 1.68538 2.49451 1.87659 2.18848 2.18262C1.88572 2.48542 1.69132 2.7836 1.53516 3.1875C1.41624 3.49332 1.27978 3.9421 1.24414 4.75098C1.2064 5.59708 1.19727 5.85526 1.19727 7.99414C1.19727 10.1296 1.2064 10.3872 1.24414 11.2363C1.27973 12.0412 1.41628 12.4929 1.53516 12.7988V12.7998C1.69124 13.2035 1.88246 13.4986 2.18848 13.8047C2.49113 14.1073 2.78982 14.3009 3.19336 14.457V14.458C3.49925 14.577 3.94843 14.7144 4.75781 14.75C5.60374 14.7877 5.8613 14.7969 8 14.7969C10.1356 14.7969 10.3931 14.7877 11.2422 14.75C12.0481 14.7144 12.4997 14.576 12.8057 14.457C13.2094 14.3009 13.5054 14.1108 13.8115 13.8047C14.1143 13.5018 14.3077 13.2028 14.4639 12.7988C14.5827 12.493 14.7203 12.0447 14.7559 11.2363C14.7936 10.3903 14.8027 10.1327 14.8027 7.99414C14.8027 5.85836 14.7936 5.60017 14.7559 4.75098C14.7202 3.94519 14.5828 3.49345 14.4639 3.1875H14.4648C14.3088 2.78381 14.1176 2.4887 13.8115 2.18262C13.5086 1.87968 13.2098 1.68551 12.8057 1.5293H12.8066C12.5007 1.41034 12.0516 1.27292 11.2422 1.2373C10.3963 1.19957 10.1387 1.19043 8 1.19043Z" fill="#9CA3AF" stroke="#9CA3AF" stroke-width="0.5"/>
<path d="M8 4.14062C10.1307 4.14062 11.8594 5.86932 11.8594 8C11.8594 10.1307 10.1307 11.8594 8 11.8594C5.86932 11.8594 4.14062 10.1307 4.14062 8C4.14062 5.86932 5.86932 4.14062 8 4.14062ZM8 5.08398C6.39005 5.08398 5.08398 6.39005 5.08398 8C5.08398 9.60995 6.39005 10.916 8 10.916C9.60995 10.916 10.916 9.60995 10.916 8C10.916 6.39005 9.60995 5.08398 8 5.08398Z" fill="#9CA3AF" stroke="#9CA3AF" stroke-width="0.5"/>
<path d="M12.2715 3.01872C12.6614 3.01872 12.9812 3.33783 12.9814 3.72771C12.9814 4.12036 12.6621 4.43767 12.2715 4.43767C11.879 4.43746 11.5625 4.11816 11.5625 3.72771C11.5627 3.33537 11.8812 3.01893 12.2715 3.01872Z" fill="#9CA3AF" stroke="#9CA3AF" stroke-width="0.5"/>
</g>
<defs>
<clipPath id="clip0_6540_57278">
<rect width="16" height="16" fill="white"/>
</clipPath>
</defs>
</svg>
