<svg width="217" height="56" viewBox="0 0 217 56" fill="none" xmlns="http://www.w3.org/2000/svg">
<g clip-path="url(#clip0_6504_41740)">
<path d="M75.8426 40.738C73.18 40.738 70.8892 40.1933 68.9701 39.1041C67.051 38.0149 65.5814 36.4675 64.5613 34.462C63.5413 32.4737 63.0312 30.1483 63.0312 27.4858C63.0312 24.8578 63.5931 22.5497 64.7169 20.5614C65.8407 18.5559 67.4054 17.0085 69.411 15.9193C71.4338 14.8301 73.7333 14.2855 76.3094 14.2855C77.6233 14.2855 78.8941 14.4238 80.1216 14.7004C81.3665 14.9597 82.4384 15.3228 83.3374 15.7896L82.8188 20.2243C80.7095 19.2561 78.5397 18.772 76.3094 18.772C73.6122 18.772 71.5721 19.5587 70.189 21.132C68.8058 22.7226 68.1143 24.8146 68.1143 27.408C68.1143 30.0878 68.7886 32.2317 70.1371 33.8396C71.503 35.4475 73.4653 36.2514 76.0241 36.2514C77.0614 36.2514 78.2285 36.1217 79.5252 35.8624V31.324H76.0241V27.4858H84.1673V38.7929C83.2164 39.3635 82.0148 39.8303 80.5625 40.1933C79.0929 40.5564 77.5196 40.738 75.8426 40.738ZM96.2265 40.5823C94.3074 40.5823 92.6477 40.1588 91.2472 39.3116C89.8468 38.4644 88.7662 37.3233 88.0055 35.8883C87.2621 34.4706 86.8904 32.8973 86.8904 31.1684C86.8904 29.4567 87.2621 27.8748 88.0055 26.4225C88.7662 24.9702 89.8468 23.8205 91.2472 22.9733C92.6477 22.1261 94.3074 21.7025 96.2265 21.7025C98.1283 21.7025 99.7795 22.1261 101.18 22.9733C102.598 23.8205 103.678 24.9702 104.422 26.4225C105.165 27.8748 105.537 29.4567 105.537 31.1684C105.537 32.8973 105.165 34.4706 104.422 35.8883C103.678 37.3233 102.598 38.4644 101.18 39.3116C99.7795 40.1588 98.1283 40.5823 96.2265 40.5823ZM96.2265 36.8738C97.6961 36.8738 98.8458 36.3551 99.6757 35.3178C100.523 34.2804 100.946 32.8973 100.946 31.1684C100.946 29.4395 100.523 28.0477 99.6757 26.993C98.8458 25.9384 97.6961 25.4111 96.2265 25.4111C94.7397 25.4111 93.5813 25.9384 92.7514 26.993C91.9215 28.0477 91.5066 29.4395 91.5066 31.1684C91.5066 32.8973 91.9215 34.2804 92.7514 35.3178C93.5813 36.3551 94.7397 36.8738 96.2265 36.8738ZM116.922 40.5823C115.003 40.5823 113.343 40.1588 111.942 39.3116C110.542 38.4644 109.461 37.3233 108.701 35.8883C107.957 34.4706 107.586 32.8973 107.586 31.1684C107.586 29.4567 107.957 27.8748 108.701 26.4225C109.461 24.9702 110.542 23.8205 111.942 22.9733C113.343 22.1261 115.003 21.7025 116.922 21.7025C118.824 21.7025 120.475 22.1261 121.875 22.9733C123.293 23.8205 124.373 24.9702 125.117 26.4225C125.86 27.8748 126.232 29.4567 126.232 31.1684C126.232 32.8973 125.86 34.4706 125.117 35.8883C124.373 37.3233 123.293 38.4644 121.875 39.3116C120.475 40.1588 118.824 40.5823 116.922 40.5823ZM116.922 36.8738C118.391 36.8738 119.541 36.3551 120.371 35.3178C121.218 34.2804 121.642 32.8973 121.642 31.1684C121.642 29.4395 121.218 28.0477 120.371 26.993C119.541 25.9384 118.391 25.4111 116.922 25.4111C115.435 25.4111 114.276 25.9384 113.447 26.993C112.617 28.0477 112.202 29.4395 112.202 31.1684C112.202 32.8973 112.617 34.2804 113.447 35.3178C114.276 36.3551 115.435 36.8738 116.922 36.8738ZM141.429 12.9888H145.916V40.2193H141.663L141.611 39.0523C140.902 39.5709 140.167 39.9513 139.406 40.1933C138.646 40.4527 137.747 40.5823 136.709 40.5823C134.928 40.5823 133.407 40.1588 132.145 39.3116C130.865 38.4644 129.906 37.3233 129.266 35.8883C128.609 34.4706 128.281 32.8973 128.281 31.1684C128.281 29.4567 128.609 27.8834 129.266 26.4484C129.906 25.0307 130.865 23.8983 132.145 23.0511C133.407 22.2039 134.928 21.7803 136.709 21.7803C138.473 21.7803 140.046 22.2644 141.429 23.2326V12.9888ZM137.358 36.8738C138.775 36.8738 139.847 36.3638 140.573 35.3437C141.282 34.3409 141.637 32.9492 141.637 31.1684C141.637 29.4049 141.282 28.0131 140.573 26.993C139.847 25.9903 138.775 25.4889 137.358 25.4889C135.957 25.4889 134.859 26.0075 134.064 27.0449C133.286 28.0823 132.897 29.4567 132.897 31.1684C132.897 32.8973 133.286 34.2804 134.064 35.3178C134.859 36.3551 135.957 36.8738 137.358 36.8738ZM167.7 21.7803C169.429 21.7803 170.907 22.2039 172.135 23.0511C173.362 23.8983 174.296 25.0307 174.936 26.4484C175.558 27.8834 175.869 29.4567 175.869 31.1684C175.869 32.8973 175.558 34.4706 174.936 35.8883C174.296 37.3233 173.362 38.4644 172.135 39.3116C170.907 40.1588 169.429 40.5823 167.7 40.5823C165.798 40.5823 164.069 40.0637 162.513 39.0263L162.436 40.2193H158.234V12.9888H162.721V23.4142C164.208 22.3249 165.867 21.7803 167.7 21.7803ZM167.052 36.8738C168.383 36.8738 169.42 36.3551 170.164 35.3178C170.89 34.2804 171.253 32.8973 171.253 31.1684C171.253 29.4567 170.89 28.0823 170.164 27.0449C169.42 26.0075 168.383 25.4889 167.052 25.4889C165.53 25.4889 164.389 25.9903 163.629 26.993C162.885 28.0131 162.513 29.4049 162.513 31.1684C162.513 32.9492 162.885 34.3409 163.629 35.3437C164.389 36.3638 165.53 36.8738 167.052 36.8738ZM187.228 40.5823C185.326 40.5823 183.675 40.1588 182.275 39.3116C180.857 38.4644 179.777 37.3233 179.033 35.8883C178.29 34.4706 177.918 32.8973 177.918 31.1684C177.918 29.4567 178.29 27.8748 179.033 26.4225C179.777 24.9702 180.857 23.8205 182.275 22.9733C183.675 22.1261 185.326 21.7025 187.228 21.7025C189.147 21.7025 190.807 22.1261 192.208 22.9733C193.608 23.8205 194.689 24.9702 195.449 26.4225C196.193 27.8748 196.564 29.4567 196.564 31.1684C196.564 32.8973 196.193 34.4706 195.449 35.8883C194.689 37.3233 193.608 38.4644 192.208 39.3116C190.807 40.1588 189.147 40.5823 187.228 40.5823ZM187.228 36.8738C188.715 36.8738 189.874 36.3551 190.703 35.3178C191.533 34.2804 191.948 32.8973 191.948 31.1684C191.948 29.4395 191.533 28.0477 190.703 26.993C189.874 25.9384 188.715 25.4111 187.228 25.4111C185.759 25.4111 184.609 25.9384 183.779 26.993C182.932 28.0477 182.508 29.4395 182.508 31.1684C182.508 32.8973 182.932 34.2804 183.779 35.3178C184.609 36.3551 185.759 36.8738 187.228 36.8738ZM201.155 49.0108L205.174 39.0263L197.628 22.0656H202.633L207.275 33.7618L211.995 22.0656H217L205.641 49.0108H201.155Z" fill="#111827"/>
<path d="M18.7483 11.6277C18.7483 12.0322 18.909 12.4202 19.195 12.7062C19.481 12.9922 19.869 13.1529 20.2735 13.1529C20.678 13.1529 21.0659 12.9922 21.352 12.7062C21.638 12.4202 21.7987 12.0322 21.7987 11.6277C21.7987 11.2232 21.638 10.8353 21.352 10.5493C21.0659 10.2632 20.678 10.1025 20.2735 10.1025C19.869 10.1025 19.481 10.2632 19.195 10.5493C18.909 10.8353 18.7483 11.2232 18.7483 11.6277ZM21.9625 13.6878C21.9625 14.0923 22.1232 14.4803 22.4092 14.7663C22.6952 15.0523 23.0832 15.213 23.4877 15.213C23.8922 15.213 24.2801 15.0523 24.5661 14.7663C24.8522 14.4803 25.0129 14.0923 25.0129 13.6878C25.0129 13.2833 24.8522 12.8954 24.5661 12.6094C24.2801 12.3233 23.8922 12.1627 23.4877 12.1627C23.0832 12.1627 22.6952 12.3233 22.4092 12.6094C22.1232 12.8954 21.9625 13.2833 21.9625 13.6878ZM15.6737 29.9167C16.897 30.2784 18.2223 30.2086 19.6492 29.7085C19.8176 27.1617 19.2962 25.1581 18.3532 25.026C17.3186 24.8806 16.1501 27.04 15.6737 29.9167ZM42.4258 40.6545C43.543 42.1183 44.4069 44.0942 44.8914 46.37C46.5495 45.0141 48.5583 44.2205 50.7234 44.2205C51.5164 44.2205 52.2892 44.3272 53.0309 44.529C48.8369 45.6693 45.6186 49.8506 45.1077 55.0165H14.6004C14.23 53.5689 14.0444 52.0802 14.0479 50.586C14.0479 47.392 14.8686 44.4748 16.221 42.2515C15.3444 39.2282 14.8541 35.8474 14.8541 32.2802C14.8541 31.4918 14.8778 30.7121 14.9251 29.9433C8.85143 28.5574 4.23808 25.21 2.95483 21.0961C2.51165 21.0411 2.08381 20.8986 1.69619 20.6769C1.30857 20.4551 0.968897 20.1585 0.696926 19.8043C0.424955 19.4501 0.226109 19.0454 0.11195 18.6137C-0.00220886 18.1819 -0.0294035 17.7318 0.0319474 17.2895C0.0932983 16.8471 0.241971 16.4214 0.469321 16.037C0.69667 15.6527 0.998162 15.3173 1.35627 15.0505C1.71437 14.7837 2.12194 14.5907 2.55528 14.4828C2.98863 14.375 3.4391 14.3543 3.8805 14.422C6.59464 10.0163 13.316 6.89845 21.1781 6.89845C23.496 6.89845 25.7142 7.16952 27.7599 7.66436C27.9929 3.83596 28.8955 0.983398 29.9717 0.983398C31.1909 0.983398 32.1858 4.64051 32.2406 9.22964L32.4568 9.33345C34.2246 5.61347 36.3152 3.08677 37.3557 3.52855C38.4642 3.99918 37.9768 7.67013 36.2841 11.8532C37.5708 12.9975 38.5461 14.2946 39.1315 15.6932C41.751 19.9189 43.374 25.7902 43.374 32.2808C43.374 35.232 43.0383 38.0557 42.4258 40.6545Z" fill="#4F46E5"/>
</g>
<defs>
<clipPath id="clip0_6504_41740">
<rect width="217" height="56" fill="white"/>
</clipPath>
</defs>
</svg>
